HIERARCHY
ROOT hip
{
	OFFSET 0.000000 0.000000 0.000000 
	CHANNELS 6 Xposition Yposition Zposition Xrotation Zrotation Yrotation
	JOINT abdomen
	{
		OFFSET 0.000000 3.402643 0.000000 
		CHANNELS 3 Xrotation Zrotation Yrotation
		JOINT chest
		{
			OFFSET 0.000000 8.438565 -0.680529 
			CHANNELS 3 Xrotation Zrotation Yrotation
			JOINT neck
			{
				OFFSET 0.000000 10.207942 -0.272212 
				CHANNELS 3 Xrotation Zrotation Yrotation
				JOINT head
				{
					OFFSET 0.000000 3.130431 0.000000 
					CHANNELS 3 Xrotation Zrotation Yrotation
					End Site
					{
						OFFSET 0.000000 3.130435 0.000000 
					}
				}
			}
			JOINT lCollar
			{
				OFFSET 3.470700 6.669187 -0.816635 
				CHANNELS 3 Yrotation Zrotation Xrotation
				JOINT lShldr
				{
					OFFSET 3.198488 0.000000 0.000000 
					CHANNELS 3 Zrotation Yrotation Xrotation
					JOINT lForeArm
					{
						OFFSET 10.139888 0.000000 0.000000 
						CHANNELS 3 Yrotation Zrotation Xrotation
						JOINT lHand
						{
							OFFSET 8.370511 0.000000 0.000000 
							CHANNELS 3 Zrotation Yrotation Xrotation
							End Site
							{
								OFFSET 4.083176 0.000000 0.000000 
							}
						}
					}
				}
			}
			JOINT rCollar
			{
				OFFSET -3.470700 6.669187 -0.816635 
				CHANNELS 3 Yrotation Zrotation Xrotation
				JOINT rShldr
				{
					OFFSET -3.198488 0.000000 0.000000 
					CHANNELS 3 Zrotation Yrotation Xrotation
					JOINT rForeArm
					{
						OFFSET -10.139888 0.000000 0.000000 
						CHANNELS 3 Yrotation Zrotation Xrotation
						JOINT rHand
						{
							OFFSET -8.370511 0.000000 0.000000 
							CHANNELS 3 Zrotation Yrotation Xrotation
							End Site
							{
								OFFSET -4.083176 0.000000 0.000000 
							}
						}
					}
				}
			}
		}
	}
	JOINT lThigh
	{
		OFFSET 5.308129 -1.633274 1.361059 
		CHANNELS 3 Xrotation Zrotation Yrotation
		JOINT lShin
		{
			OFFSET -2.041588 -20.007561 0.000000 
			CHANNELS 3 Xrotation Zrotation Yrotation
			JOINT lFoot
			{
				OFFSET 0.000000 -19.190928 -1.224953 
				CHANNELS 3 Xrotation Yrotation Zrotation
				End Site
				{
					OFFSET 0.000000 -2.449906 4.627600 
				}
			}
		}
	}
	JOINT rThigh
	{
		OFFSET -5.308129 -1.633274 1.361059 
		CHANNELS 3 Xrotation Zrotation Yrotation
		JOINT rShin
		{
			OFFSET 2.041588 -20.007561 0.000000 
			CHANNELS 3 Xrotation Zrotation Yrotation
			JOINT rFoot
			{
				OFFSET 0.000000 -19.190928 -1.224953 
				CHANNELS 3 Xrotation Yrotation Zrotation
				End Site
				{
					OFFSET 0.000000 -2.449906 4.627600 
				}
			}
		}
	}
}
MOTION
Frames: 14
Frame Time: 0.011111
63.681831 52.893333 1.613896 -1.459575 7.452524 -79.868744 12.204921 -4.470125 -3.835911 -24.650831 3.858471 -0.795012 -7.227942 -1.242470 -2.547643 10.485263 -4.056577 -5.553611 -10.187975 -12.782608 -2.553061 -65.707253 -6.416828 3.279778 -61.369873 9.364524 13.019150 8.524705 12.647240 -61.067764 11.162106 9.669281 -2.390417 62.683392 1.121018 13.840693 53.437748 -8.418516 9.581153 -8.534408 -12.637552 33.382668 -10.488001 3.915462 -17.933939 24.763660 -5.589519 -4.180842 -21.868282 3.411851 -1.262057 -9.280773 -8.687524 11.705561 25.189980 5.561173 4.213717 -33.478806 -12.213358 -5.650262 
63.724308 52.914932 1.548406 -1.451130 7.592315 -79.564140 12.094567 -4.487756 -4.017900 -24.729250 3.913448 -0.851977 -6.896371 -1.067261 -2.599427 10.302031 -4.490635 -5.650556 -10.187975 -12.782608 -2.553061 -65.851013 -6.045284 3.339360 -61.807121 9.388016 13.212836 8.524705 12.647240 -60.979866 11.162106 9.669281 -2.390417 62.506245 0.850394 14.812686 53.689060 -8.456609 9.678866 -8.534408 -12.637552 34.896343 -10.813981 3.944992 -17.793404 24.936342 -5.576261 -4.203689 -21.802565 3.082195 -1.399940 -9.415208 -8.725193 11.451046 25.130013 5.560816 4.208388 -33.350983 -12.258519 -5.642253 
63.760063 52.918819 1.479729 -1.404954 7.551657 -79.353722 12.251263 -4.467904 -3.998717 -24.709648 3.903986 -0.850157 -6.827804 -1.102456 -2.589458 10.202564 -4.440540 -5.626379 -10.187975 -12.782608 -2.553061 -65.783073 -5.874835 3.702033 -62.157616 9.400938 13.369815 8.524705 12.647240 -60.852913 11.162106 9.669281 -2.390417 62.405621 0.861820 15.496951 53.900890 -8.497090 9.763738 -8.534408 -12.637552 36.312359 -10.919178 4.032856 -17.900562 24.975721 -5.576411 -4.226652 -21.765015 2.950708 -1.448292 -9.421668 -8.660815 11.340272 25.170298 5.561105 4.202240 -33.388515 -12.241186 -5.632749 
63.793697 52.905727 1.420612 -1.380607 7.531032 -79.259041 12.419042 -4.455991 -3.870741 -24.690128 3.915965 -0.810296 -6.631526 -1.236529 -2.546350 9.804025 -4.226216 -5.509313 -10.187975 -12.782608 -2.553061 -65.731339 -5.667561 4.307979 -62.638027 9.421494 13.589176 8.524705 12.647240 -60.843155 11.162106 9.669281 -2.390417 62.216301 1.035788 16.216202 53.911648 -8.500485 9.773309 -8.534408 -12.637552 37.689312 -11.089837 4.081882 -18.022470 25.054415 -5.586257 -4.216228 -21.657757 2.945310 -1.465393 -9.437162 -8.599760 11.221049 25.211670 5.556032 4.195007 -33.359055 -12.176944 -5.578731 
63.845375 52.890850 1.359015 -1.358383 7.638604 -79.069313 12.456007 -4.430068 -3.967554 -24.729345 3.943690 -0.833941 -7.103056 -1.051481 -2.638361 10.242913 -4.804979 -5.759970 -10.187975 -12.782608 -2.553061 -65.797157 -5.292381 4.705181 -63.256580 9.441169 13.879413 8.524705 12.647240 -60.989635 11.162106 9.669281 -2.390417 61.872738 1.300901 16.158972 53.710754 -8.462890 9.688210 -8.534408 -12.637552 36.204933 -11.483623 4.091733 -17.985762 25.188004 -5.567727 -4.234542 -21.433739 2.811453 -1.541379 -9.594268 -8.580800 11.062778 25.249683 5.561223 4.228696 -33.307770 -12.266876 -5.628981 
63.896709 52.893688 1.292817 -1.268828 7.751729 -78.665253 12.450684 -4.312907 -4.181433 -24.738937 3.890842 -0.910178 -7.122514 -1.032807 -2.639540 10.038729 -4.849807 -5.739173 -10.187975 -12.782608 -2.553061 -65.764938 -4.860519 5.082380 -63.917717 9.453991 14.186315 8.524705 12.647240 -61.018936 11.162106 9.669281 -2.390417 61.648277 1.399167 16.532396 53.858688 -8.490473 9.752760 -8.534408 -12.637552 35.980324 -11.886812 4.179590 -17.884762 25.338303 -5.566662 -4.247392 -21.391874 2.440719 -1.679128 -9.714415 -8.484946 10.911821 25.271904 5.551871 4.218832 -33.314636 -12.539695 -5.758721 
63.966446 52.907139 1.250690 -1.127145 7.961767 -78.724854 12.285151 -4.167113 -3.945442 -24.689655 3.747734 -0.850841 -6.916849 -1.147860 -2.608151 9.504126 -4.691195 -5.637457 -10.187975 -12.782608 -2.553061 -65.650177 -4.563047 5.598314 -64.450569 9.457935 14.432419 8.524705 12.647240 -60.911510 11.162106 9.669281 -2.390417 61.492378 1.390815 16.988941 54.228054 -8.554146 9.902032 -8.534408 -12.637552 36.351421 -12.332952 4.325905 -17.687355 25.540051 -5.556590 -4.273440 -21.480806 2.262352 -1.730708 -10.092069 -8.375842 10.799366 25.281586 5.551877 4.229421 -32.932766 -12.557660 -5.618670 
64.024498 52.911388 1.210334 -1.082599 8.064700 -78.735428 12.226582 -4.104635 -3.836343 -24.532986 3.702181 -0.818829 -6.316400 -1.699177 -2.407078 8.188919 -3.930039 -5.196312 -10.187975 -12.782608 -2.553061 -65.565605 -4.597946 5.926341 -64.673943 9.456855 14.533019 8.524705 12.647240 -61.126354 11.162106 9.669281 -2.390417 61.193569 1.575053 17.329714 54.396332 -8.580891 9.978803 -8.534408 -12.637552 36.322124 -12.628835 4.355241 -17.559359 25.792936 -5.538369 -4.311941 -21.459743 2.105841 -1.793041 -10.308961 -8.367247 10.748858 25.251612 5.551710 4.226760 -32.799870 -12.434118 -5.502583 
64.083618 52.919529 1.166438 -1.089062 8.154007 -78.650764 12.322061 -4.038596 -3.876804 -24.435143 3.712445 -0.832474 -7.063674 -1.950917 -2.204445 8.998014 -3.441782 -4.899490 -10.187975 -12.782608 -2.553061 -65.553856 -4.665295 6.169683 -64.886360 9.454696 14.633028 8.524705 12.647240 -61.380260 11.162106 9.669281 -2.390417 60.748787 1.862202 17.888958 54.522762 -8.599777 10.023661 -8.534408 -12.637552 36.283062 -12.953435 4.335896 -17.475834 26.044374 -5.528288 -4.341355 -21.396751 1.988929 -1.842874 -10.487939 -8.398249 10.562233 25.249685 5.561223 4.228695 -32.677860 -12.465141 -5.473027 
64.159378 52.934044 1.122896 -1.047171 8.258696 -78.496246 12.434496 -3.887390 -3.981359 -24.513397 3.709490 -0.876552 -6.884647 -1.686778 -2.190952 8.202957 -4.164207 -4.812761 -10.187975 -12.782608 -2.553061 -65.618752 -4.349442 6.583656 -65.472275 9.448728 14.906886 8.524705 12.647240 -61.302135 11.162106 9.669281 -2.390417 60.280872 1.897511 18.672653 54.871624 -8.658046 10.173628 -8.534408 -12.637552 36.566265 -13.348692 4.345695 -17.381283 26.235508 -5.517827 -4.376055 -21.287130 1.796631 -1.916924 -10.714621 -8.374778 10.315859 25.301342 5.556263 4.212651 -32.502254 -12.572344 -5.445252 
64.240082 52.939709 1.082539 -0.989170 8.312192 -78.415230 12.561411 -3.793912 -3.871262 -24.611197 3.680140 -0.852194 -6.722325 -1.403629 -2.343905 7.799969 -4.857998 -5.073300 -10.187975 -12.782608 -2.553061 -65.592178 -3.938452 7.182768 -66.152275 9.431110 15.230530 8.524705 12.647240 -61.341198 11.162106 9.669281 -2.390417 59.978828 1.774258 19.100512 55.348103 -8.735737 10.380097 -8.534408 -12.637552 36.859230 -13.709829 4.394342 -17.261475 26.416672 -5.511805 -4.381752 -21.228565 1.444923 -2.064595 -10.934225 -8.308906 10.174315 25.381550 5.552197 4.239189 -32.407047 -12.614799 -5.427066 
64.314072 52.933338 1.047493 -0.969854 8.320548 -78.352196 12.692499 -3.813766 -3.668204 -24.620905 3.634058 -0.791935 -6.646745 -1.273291 -2.432999 7.591228 -5.072157 -5.215037 -10.187975 -12.782608 -2.553061 -65.418259 -3.809243 7.737698 -66.502510 9.417035 15.385194 8.524705 12.647240 -61.624397 11.162106 9.669281 -2.390417 59.787495 1.690678 19.319862 55.865273 -8.808186 10.602372 -8.534408 -12.637552 37.142441 -14.048508 4.384573 -17.168804 26.616316 -5.508182 -4.417834 -21.086174 1.118919 -2.196261 -11.072347 -8.280309 10.123284 25.461815 5.550958 4.245858 -32.401031 -12.570510 -5.403265 
64.393372 52.918819 1.008906 -0.978763 8.342545 -78.168518 12.848350 -3.796371 -3.718403 -24.630659 3.623695 -0.801834 -6.321255 -1.069707 -2.397525 6.851553 -5.280426 -5.033413 -10.187975 -12.782608 -2.553061 -65.245003 -3.789223 8.143903 -66.673500 9.412905 15.471931 8.524705 12.647240 -61.956432 11.162106 9.669281 -2.390417 59.506329 1.670628 19.762625 56.332211 -8.877159 10.801897 -8.534408 -12.637552 37.347515 -14.393806 4.374851 -17.045826 26.847113 -5.499263 -4.446698 -20.947517 0.678124 -2.362877 -11.217414 -8.299154 10.025422 25.543314 5.541835 4.260700 -32.449520 -12.577079 -5.427579 
64.474800 52.910683 0.969612 -1.031646 8.368440 -78.062721 13.010143 -3.755252 -3.888278 -24.601538 3.729526 -0.844157 -6.200707 -1.298128 -2.281858 6.239804 -5.225360 -4.822192 -10.187975 -12.782608 -2.553061 -65.277161 -3.547009 8.615992 -67.308945 9.379624 15.775254 8.524705 12.647240 -62.102913 11.162106 9.669281 -2.390417 58.953979 1.741841 20.693689 56.691887 -8.922522 10.949917 -8.534408 -12.637552 37.650249 -14.639107 4.336023 -16.856688 27.066229 -5.497303 -4.484896 -20.915710 0.207823 -2.558083 -11.363916 -8.338247 9.967604 25.652899 5.542151 4.280110 -32.445324 -12.588255 -5.436438 
